<?xml version="1.0" standalone="yes"?>

<svg version="1.1" viewBox="0.0 0.0 344.3070866141732 346.15485564304464" fill="none" stroke="none" stroke-linecap="square" stroke-miterlimit="10" xmlns="http://www.w3.org/2000/svg" xmlns:xlink="http://www.w3.org/1999/xlink"><clipPath id="p.0"><path d="m0 0l344.3071 0l0 346.15485l-344.3071 0l0 -346.15485z" clip-rule="nonzero"></path></clipPath><g clip-path="url(#p.0)"><path fill="#000000" fill-opacity="0.0" d="m0 0l344.3071 0l0 346.15485l-344.3071 0z" fill-rule="evenodd"></path><path fill="#666666" d="m172.1499 340.48654l-167.40158 -167.4016l167.40158 -167.40157l167.40158 167.40157z" fill-rule="evenodd"></path><path stroke="#000000" stroke-width="1.0" stroke-linejoin="round" stroke-linecap="butt" d="m172.1499 340.48654l-167.40158 -167.4016l167.40158 -167.40157l167.40158 167.40157z" fill-rule="evenodd"></path><path fill="#d9d9d9" d="m172.16573 340.50134l15.3858185 -152.01575l152.01575 -15.3858185z" fill-rule="evenodd"></path><path stroke="#000000" stroke-width="4.0" stroke-linejoin="round" stroke-linecap="butt" d="m172.16573 340.50134l15.3858185 -152.01575l152.01575 -15.3858185z" fill-rule="evenodd"></path><path fill="#d9d9d9" d="m339.57742 173.05939l-152.01575 -15.385834l-15.3858185 -152.01575z" fill-rule="evenodd"></path><path stroke="#000000" stroke-width="4.0" stroke-linejoin="round" stroke-linecap="butt" d="m339.57742 173.05939l-152.01575 -15.385834l-15.3858185 -152.01575z" fill-rule="evenodd"></path><path fill="#d9d9d9" d="m172.14104 5.653247l-15.385834 152.01575l-152.01575 15.385834z" fill-rule="evenodd"></path><path stroke="#000000" stroke-width="4.0" stroke-linejoin="round" stroke-linecap="butt" d="m172.14104 5.653247l-15.385834 152.01575l-152.01575 15.385834z" fill-rule="evenodd"></path><path fill="#d9d9d9" d="m4.7293277 173.08408l152.01575 15.3858185l15.385834 152.01576z" fill-rule="evenodd"></path><path stroke="#000000" stroke-width="4.0" stroke-linejoin="round" stroke-linecap="butt" d="m4.7293277 173.08408l152.01575 15.3858185l15.385834 152.01576z" fill-rule="evenodd"></path></g></svg>

